<svg width="750" height="694" viewBox="0 0 750 694" fill="none" xmlns="http://www.w3.org/2000/svg">
<g id="undraw_Team_page_re_cffb 1" clip-path="url(#clip0)">
<path id="Vector" d="M739.083 210.864L11.8317 209.27C9.06161 209.267 6.40348 210.297 4.44076 212.134C2.47804 213.972 1.3711 216.467 1.36296 219.072L0.347155 682.491C0.343875 685.096 1.43987 687.596 3.39451 689.442C5.34916 691.288 8.00275 692.33 10.7728 692.338L738.024 693.932C739.534 693.936 741.028 693.631 742.4 693.039C743.773 692.446 744.993 691.581 745.975 690.502C746.058 690.418 746.135 690.327 746.204 690.232C746.829 689.517 747.335 688.716 747.706 687.858C748.235 686.678 748.506 685.411 748.505 684.131L749.521 220.712C749.523 218.105 748.426 215.604 746.468 213.757C744.511 211.911 741.855 210.87 739.083 210.864V210.864ZM745.522 684.124C745.52 685.495 745.088 686.834 744.279 687.975C743.561 688.978 742.587 689.797 741.446 690.357C740.39 690.868 739.218 691.132 738.03 691.127L10.7789 689.533C8.80005 689.526 6.9045 688.782 5.50809 687.463C4.11169 686.144 3.32842 684.358 3.3301 682.497L4.3459 219.079C4.35237 217.218 5.14346 215.435 6.54564 214.123C7.94782 212.81 9.8466 212.074 11.8255 212.076L739.077 213.67C741.057 213.674 742.956 214.417 744.355 215.736C745.754 217.056 746.539 218.843 746.538 220.705L745.522 684.124Z" fill="#3F3D56"/>
<path id="Vector_2" d="M747.958 250.26L2.78702 248.627L2.78086 251.435L747.952 253.069L747.958 250.26Z" fill="#3F3D56"/>
<path id="Vector_3" d="M28.1952 238.796C33.1437 238.807 37.1635 235.044 37.1737 230.39C37.1839 225.737 33.1806 221.956 28.2322 221.945C23.2837 221.934 19.2639 225.698 19.2537 230.351C19.2435 235.004 23.2468 238.785 28.1952 238.796Z" fill="#3F3D56"/>
<path id="Vector_4" d="M53.9552 238.853C58.9036 238.864 62.9234 235.1 62.9336 230.447C62.9438 225.793 58.9406 222.012 53.9921 222.001C49.0436 221.991 45.0239 225.754 45.0137 230.407C45.0035 235.061 49.0067 238.842 53.9552 238.853Z" fill="#3F3D56"/>
<path id="Vector_5" d="M79.7151 238.909C84.6635 238.92 88.6833 235.157 88.6935 230.503C88.7037 225.85 84.7005 222.069 79.752 222.058C74.8036 222.047 70.7838 225.81 70.7736 230.464C70.7634 235.117 74.7666 238.898 79.7151 238.909Z" fill="#3F3D56"/>
<g id="manLeft">
<path id="Vector_6" d="M143.427 485.408C159.679 485.444 172.881 473.084 172.914 457.801C172.948 442.518 159.8 430.1 143.548 430.064C127.296 430.029 114.094 442.389 114.061 457.672C114.027 472.955 127.175 485.373 143.427 485.408Z" fill="#A0616A"/>
<path id="Vector_7" d="M163.85 476.595C164.845 477.521 166.161 478.079 167.558 478.166C168.954 478.253 170.337 477.864 171.452 477.069C178.398 472.25 184.5 466.246 188.119 458.914C192.267 450.512 192.75 440.193 187.789 432.188C183.596 425.422 176.175 421.045 168.777 417.448C165.904 415.915 162.809 414.786 159.59 414.096C156.336 413.413 152.928 413.923 150.06 415.52C148.657 416.343 147.55 417.545 146.884 418.969C146.219 420.393 146.025 421.972 146.328 423.501C142.779 419.677 138.229 416.79 133.128 415.129C129.917 413.939 126.399 413.692 123.036 414.418C118.333 415.661 114.894 419.581 113.008 423.818C111.483 427.041 110.951 430.601 111.473 434.095C111.747 435.834 112.407 437.499 113.409 438.983C114.411 440.466 115.733 441.736 117.289 442.709C121.17 444.979 126.127 444.827 130.592 443.913C135.056 442.999 139.379 441.402 143.929 441.006C148.478 440.609 153.541 441.687 156.302 445.112C158.246 447.523 158.74 450.67 159.171 453.668L161.413 469.265C161.594 471.521 162.202 473.729 163.208 475.784C163.382 476.08 163.598 476.353 163.85 476.595Z" fill="#2F2E41"/>
<path id="Vector_8" d="M231.788 379.316L61.6326 378.943C57.9829 378.939 54.4809 380.297 51.8948 382.718C49.3087 385.139 47.8496 388.426 47.8377 391.858L47.4869 551.867C47.4839 555.299 48.9285 558.592 51.504 561.025C54.0794 563.457 57.5754 564.83 61.2251 564.842L231.38 565.215C235.031 565.221 238.534 563.864 241.12 561.443C243.706 559.021 245.165 555.733 245.175 552.3L245.525 392.292C245.531 388.859 244.087 385.564 241.511 383.131C238.935 380.699 235.438 379.326 231.788 379.316ZM242.778 552.295C242.77 555.13 241.565 557.845 239.429 559.845C237.293 561.845 234.4 562.966 231.385 562.962L61.23 562.589C58.2159 562.578 55.329 561.444 53.202 559.435C51.0751 557.426 49.8816 554.707 49.8832 551.872L50.2339 391.863C50.2447 389.029 51.4501 386.315 53.5859 384.315C55.7216 382.316 58.6135 381.194 61.6277 381.196L231.783 381.569C234.798 381.578 237.686 382.712 239.813 384.721C241.94 386.731 243.133 389.451 243.129 392.286L242.778 552.295ZM111.418 562.699L111.162 564.952L182.413 565.108C182.619 564.342 182.824 563.588 183.053 562.856L111.418 562.699Z" fill="#3F3D56"/>
<path id="Vector_9" d="M187.702 551.712C186.213 554.282 184.991 556.981 184.055 559.771C183.705 560.762 183.367 561.798 183.053 562.856C182.824 563.588 182.619 564.342 182.414 565.108L104.8 564.938C104.91 564.195 105.007 563.44 105.116 562.685C109.147 533.232 112.423 503.337 112.949 498.46C112.998 497.998 113.023 497.761 113.023 497.761C159.583 474.812 193.46 505.036 193.46 505.036C193.46 505.036 193.507 505.25 193.578 505.667C194.312 509.882 198.044 534.497 187.702 551.712Z" fill="#6C63FF"/>
<path id="Vector_10" d="M184.055 559.771L178.902 549.327L180.25 507.959L193.578 505.667L194.046 505.589C200.924 509.369 206.24 515.226 209.129 522.207C211.704 528.296 216.588 546.604 220.71 562.939C220.9 563.694 221.09 564.449 221.28 565.193L186.691 565.117L185.581 562.862L184.055 559.771Z" fill="#6C63FF"/>
<path id="Vector_11" d="M118.673 499.554L111.418 562.699L111.162 564.952L91.9085 564.91C92.1376 564.178 92.3669 563.423 92.6084 562.658C98.1105 545.049 105.607 519.343 104.819 512.525C103.584 501.887 112.398 498.357 112.398 498.357L112.949 498.46L118.673 499.554Z" fill="#6C63FF"/>
</g>
<g id="girl">
<path id="Vector_12" d="M332.623 488.114C323.674 482.609 319.245 469.851 321.466 458.197C323.687 446.544 331.978 436.52 341.9 432.211C346.727 430.178 352.015 429.304 357.29 429.668C362.565 430.033 367.661 431.623 372.121 434.298C381.2 439.545 394.049 442.436 398.343 452.903C401.643 460.947 397.4 477.257 392.918 485.053C389.044 491.791 381.704 494.861 374.812 496.187C367.187 497.632 359.321 497.52 351.745 495.859C344.169 494.197 337.06 491.026 330.9 486.558L332.623 488.114Z" fill="#2F2E41"/>
<path id="Vector_13" d="M327.813 550.026L320.623 561.626L319.673 563.156L318.291 565.406L297.168 565.36L298.599 563.11L302.302 557.27L310.934 543.634L320.667 547.317L327.813 550.026Z" fill="#FFB8B8"/>
<path id="Vector_14" d="M295.587 565.356L291.734 563.094L291.255 562.812L315.56 521.37C316.605 519.576 318.018 517.995 319.718 516.719C321.417 515.442 323.369 514.495 325.46 513.933C328.101 513.2 330.896 513.109 333.584 513.669C335.153 513.984 336.662 514.519 338.062 515.256C338.638 515.555 339.193 515.887 339.725 516.251C341.77 517.606 343.448 519.392 344.626 521.467C346.027 523.896 346.717 526.632 346.622 529.394C346.528 532.156 345.653 534.844 344.088 537.183L334.724 551.19L326.718 563.171L325.216 565.421L295.587 565.356V565.356Z" fill="#2F2E41"/>
<path id="Vector_15" d="M357.934 502.897C374.186 502.932 387.388 490.572 387.422 475.289C387.455 460.006 374.308 447.588 358.056 447.553C341.804 447.517 328.602 459.877 328.568 475.16C328.535 490.443 341.682 502.861 357.934 502.897Z" fill="#FFB8B8"/>
<path id="Vector_16" d="M387.338 565.557L321.19 565.412L321.492 564.613C321.325 564.128 321.17 563.643 321.027 563.158C320.873 562.651 320.742 562.133 320.624 561.625C319.559 556.907 319.574 552.029 320.667 547.317C324.358 530.447 338.969 516.768 338.969 516.768C339.221 516.588 339.473 516.42 339.725 516.251C341.897 514.763 344.253 513.527 346.742 512.571C357.582 508.37 368.937 510.096 376.563 512.299C379.219 513.06 381.816 513.996 384.333 515.098C385.219 515.495 385.698 515.744 385.698 515.744L386.405 537.388L387.258 563.304L387.338 565.557Z" fill="#6C63FF"/>
<path id="Vector_17" d="M417.942 563.371L412.939 539.182L407.889 514.79C407.678 513.782 407.149 512.858 406.37 512.139C405.591 511.419 404.599 510.938 403.524 510.758L392.841 508.999L382.9 507.366C381.942 507.202 380.953 507.287 380.042 507.613C379.131 507.938 378.333 508.492 377.732 509.214C376.983 510.088 376.571 511.176 376.563 512.299C376.562 512.992 376.711 513.679 377.002 514.316C382.165 525.707 382.222 543.722 380.861 563.29C380.799 564.033 380.75 564.788 380.688 565.543L418.417 565.625L417.942 563.371Z" fill="#2F2E41"/>
<path id="Vector_18" d="M346.742 512.571C346.524 511.751 346.092 510.994 345.486 510.37C344.879 509.745 344.117 509.272 343.269 508.993C342.42 508.714 341.51 508.638 340.622 508.771C339.734 508.905 338.896 509.244 338.182 509.758L333.584 513.669L314.763 529.717C314.176 530.209 313.716 530.821 313.417 531.505C311.286 536.266 307.132 545.665 302.302 557.27C301.519 559.161 300.712 561.108 299.881 563.112C299.591 563.855 299.279 564.609 298.965 565.363L329.925 565.431C330.178 564.677 330.431 563.923 330.684 563.18C332.071 559.093 333.422 555.085 334.724 551.189C338.535 539.875 341.972 529.596 344.626 521.467C345.362 519.215 346.033 517.136 346.64 515.23C346.924 514.368 346.959 513.45 346.742 512.571V512.571Z" fill="#2F2E41"/>
<path id="Vector_19" d="M424.886 565.64L426.887 565.644L426.613 565.013L425.886 563.389L414.667 538.206L412.939 539.182L399.072 547.027L406.141 563.345L407.118 565.601L418.416 565.626L424.886 565.64Z" fill="#FFB8B8"/>
<path id="Vector_20" d="M413.56 518.25C412.043 514.492 409.04 511.43 405.178 509.706C401.316 507.982 396.896 507.729 392.841 508.999C392.323 509.16 391.814 509.347 391.318 509.559C388.477 510.744 386.054 512.665 384.333 515.098C383.631 516.07 383.053 517.116 382.613 518.216C381.831 520.124 381.459 522.158 381.519 524.203C381.578 526.247 382.067 528.26 382.958 530.125L386.405 537.389L398.736 563.329L399.81 565.585L424.886 565.64L426.613 565.012L431.098 563.4L431.721 563.176L413.56 518.25Z" fill="#2F2E41"/>
<path id="Vector_21" d="M386.833 474.461C382.101 475.064 382.713 472.801 380.827 468.675C378.942 464.548 376.416 459.649 371.662 459.221C367.766 458.87 364.549 461.793 361.387 463.961C355.752 467.826 348.165 469.707 341.648 467.367C335.13 465.027 330.614 457.707 333.102 451.579C333.876 449.888 335.012 448.363 336.438 447.101C337.864 445.839 339.551 444.866 341.393 444.241C345.09 443.014 349.014 442.511 352.925 442.761C361.625 443.041 370.154 445.114 377.909 448.833C383.262 451.405 388.47 455.079 390.491 460.402C392.512 465.725 393.833 473.202 388.018 474.628L386.833 474.461Z" fill="#2F2E41"/>
<path id="Vector_22" d="M378.79 428.859C376.46 425.027 378.402 419.779 382.234 417.23C386.065 414.681 391.199 414.441 395.762 415.477C400.275 416.556 404.407 418.733 407.744 421.787C411.081 424.842 413.506 428.668 414.774 432.882C416.697 439.58 415.529 446.767 417.155 453.534C418.022 457.141 419.665 460.544 421.983 463.532C424.3 466.52 427.244 469.03 430.632 470.909C434.02 472.787 437.781 473.993 441.683 474.453C445.585 474.913 449.546 474.618 453.321 473.584C458.239 472.237 463.241 468.949 463.734 464.155C464.231 469.662 462.884 475.178 459.881 479.929C456.879 484.68 452.371 488.428 446.989 490.65C440.652 493.12 433.588 493.266 426.73 493.086C422.26 492.968 417.689 492.705 413.57 491.07C410.719 489.84 408.159 488.088 406.037 485.916C403.916 483.743 402.277 481.195 401.217 478.42C399.13 472.842 398.576 466.858 399.607 461.026C400.292 456.489 401.644 452.043 402.029 447.475C402.415 442.907 401.713 438.027 398.726 434.405C395.738 430.784 390.02 428.925 385.757 431.143C384.043 432.035 382.659 433.494 380.798 434.068C378.937 434.642 376.304 433.621 376.477 431.786L378.79 428.859Z" fill="#2F2E41"/>
<path id="Vector_23" d="M460.159 379.817L290.004 379.444C286.354 379.44 282.852 380.797 280.266 383.218C277.68 385.64 276.221 388.927 276.209 392.359L275.858 552.367C275.855 555.8 277.3 559.093 279.875 561.526C282.45 563.958 285.946 565.331 289.596 565.343L459.751 565.716C463.402 565.722 466.905 564.365 469.491 561.943C472.078 559.522 473.536 556.233 473.546 552.801L473.896 392.792C473.902 389.36 472.458 386.065 469.882 383.632C467.306 381.199 463.809 379.827 460.159 379.817V379.817ZM471.149 552.795C471.141 555.63 469.936 558.346 467.8 560.346C465.664 562.346 462.771 563.467 459.756 563.463L289.601 563.09C286.587 563.079 283.7 561.945 281.573 559.936C279.446 557.927 278.253 555.207 278.254 552.373L278.605 392.364C278.616 389.53 279.821 386.815 281.957 384.816C284.093 382.816 286.985 381.695 289.999 381.697L460.154 382.07C463.169 382.079 466.057 383.213 468.184 385.222C470.311 387.231 471.504 389.952 471.5 392.787L471.149 552.795ZM321.027 563.158C321.17 563.643 321.325 564.128 321.492 564.613L321.19 565.412L380.688 565.543C380.75 564.788 380.799 564.033 380.861 563.29L321.027 563.158Z" fill="#3F3D56"/>
<path id="Vector_24" d="M381.176 443.494C382.201 443.785 383.3 443.751 384.302 443.396C385.304 443.041 386.153 442.385 386.718 441.53C387.254 440.658 387.57 439.683 387.643 438.679C387.715 437.674 387.542 436.668 387.136 435.736C386.305 433.876 384.993 432.241 383.318 430.979C381.417 429.354 379.101 428.22 376.595 427.688C375.344 427.431 374.048 427.431 372.796 427.687C371.544 427.943 370.366 428.449 369.34 429.171C368.333 429.917 367.586 430.928 367.193 432.076C366.801 433.223 366.782 434.455 367.139 435.613C367.896 437.693 369.957 439.09 372.015 440.131C376.1 442.193 380.607 443.408 385.233 443.695L381.176 443.494Z" fill="#2F2E41"/>
</g>
<g id="manRight">
<path id="Vector_25" d="M579.298 565.978L579.531 563.725L586.433 497.627C588.652 496.001 591.035 494.584 593.547 493.395C607.472 486.835 620.884 490.019 628.138 492.761C630.061 493.474 631.918 494.333 633.692 495.331L637.496 563.852L637.622 566.106L579.298 565.978Z" fill="#6C63FF"/>
<path id="Vector_26" d="M611.132 480.086C627.384 480.122 640.586 467.761 640.619 452.479C640.653 437.196 627.505 424.778 611.253 424.742C595.001 424.706 581.8 437.067 581.766 452.35C581.733 467.632 594.88 480.05 611.132 480.086Z" fill="#FFB8B8"/>
<path id="Vector_27" d="M635.032 469.339C637.224 467.176 638.682 464.449 639.221 461.504C639.759 458.559 639.355 455.53 638.057 452.801C636.76 450.073 634.629 447.769 631.936 446.182C629.243 444.595 626.109 443.798 622.932 443.891C618.863 444.009 615.025 445.567 611.139 446.708C605.25 448.578 598.97 449.096 592.823 448.218C586.64 447.302 581.065 444.19 577.247 439.525C573.616 434.811 572.495 428.282 575.079 422.995C578.062 416.891 585.005 413.54 591.536 410.818C594.17 409.585 596.983 408.723 599.884 408.259C601.337 408.036 602.824 408.096 604.251 408.438C605.678 408.78 607.015 409.395 608.178 410.245C610.008 411.732 611.078 413.963 613.07 415.253C615.313 416.704 618.231 416.673 620.939 416.934C627.04 417.521 632.806 419.842 637.471 423.586C642.136 427.33 645.478 432.321 647.054 437.894C648.629 443.468 648.363 449.36 646.291 454.786C644.219 460.213 640.438 464.918 635.453 468.274L635.032 469.339Z" fill="#2F2E41"/>
<path id="Vector_28" d="M597.907 504.852L593.547 493.396L593.275 492.681C593.146 492.343 592.937 492.036 592.663 491.785C592.39 491.534 592.059 491.344 591.696 491.231C591.333 491.117 590.947 491.083 590.568 491.131C590.189 491.178 589.827 491.306 589.508 491.505L584.523 494.615C584.523 494.615 552.593 494.545 549.99 512.555C549.953 512.836 549.905 513.152 549.868 513.49C549.866 513.505 549.862 513.52 549.856 513.535C549.53 514.717 543.455 536.606 538.22 563.635C538.075 564.378 537.93 565.132 537.784 565.887L607.167 566.039L607.167 566.039C609.484 538.881 608.276 513.623 597.907 504.852Z" fill="#2F2E41"/>
<path id="Vector_29" d="M680.543 563.947C676.818 536.2 671.452 513.756 671.452 513.756C671.405 513.418 671.358 513.102 671.322 512.821C668.81 494.8 636.88 494.73 636.88 494.73L631.911 491.6C631.593 491.399 631.231 491.27 630.852 491.221C630.473 491.171 630.087 491.204 629.723 491.316C629.36 491.428 629.028 491.616 628.753 491.867C628.479 492.117 628.268 492.423 628.138 492.761L623.451 504.908C613.044 513.634 611.725 538.886 613.923 566.053L613.924 566.054L680.838 566.2C680.743 565.445 680.638 564.69 680.543 563.947Z" fill="#2F2E41"/>
<path id="Vector_30" d="M688.542 380.317L518.387 379.944C514.737 379.938 511.233 381.295 508.647 383.717C506.06 386.138 504.602 389.427 504.592 392.859L504.241 552.868C504.236 556.301 505.68 559.595 508.256 562.028C510.832 564.461 514.329 565.833 517.979 565.844L688.135 566.217C691.784 566.22 695.286 564.863 697.872 562.442C700.458 560.02 701.917 556.733 701.929 553.301L702.28 393.293C702.283 389.861 700.838 386.567 698.263 384.135C695.688 381.702 692.192 380.329 688.542 380.317ZM699.533 553.296C699.522 556.13 698.317 558.845 696.181 560.844C694.045 562.844 691.154 563.966 688.14 563.963L517.984 563.59C514.97 563.581 512.081 562.448 509.954 560.438C507.827 558.429 506.634 555.708 506.638 552.873L506.988 392.865C506.997 390.03 508.202 387.314 510.338 385.314C512.474 383.314 515.367 382.193 518.382 382.198L688.537 382.571C691.551 382.581 694.438 383.716 696.565 385.725C698.692 387.733 699.885 390.453 699.883 393.288L699.533 553.296ZM607.351 563.786C607.29 564.53 607.228 565.284 607.166 566.039L658.793 566.152C658.89 565.409 659 564.654 659.097 563.9L607.351 563.786Z" fill="#3F3D56"/>
</g>
<g id="bars">
<g id="Vector_31" filter="url(#filter0_b)">
<path d="M462.054 332.501L288.328 332.12C285.786 332.114 283.35 331.159 281.556 329.465C279.762 327.771 278.758 325.476 278.763 323.086C278.768 320.695 279.783 318.405 281.584 316.718C283.385 315.032 285.825 314.088 288.368 314.093L462.093 314.474C464.635 314.48 467.071 315.435 468.865 317.129C470.659 318.823 471.663 321.118 471.658 323.508C471.653 325.899 470.638 328.189 468.837 329.876C467.036 331.562 464.596 332.506 462.054 332.501Z" fill="#6C63FF"/>
</g>
<g id="Vector_32" filter="url(#filter1_b)">
<path d="M572.224 631.309L176.849 630.443C174.307 630.437 171.871 629.482 170.077 627.788C168.283 626.094 167.278 623.799 167.284 621.408C167.289 619.018 168.304 616.727 170.105 615.041C171.906 613.355 174.346 612.41 176.888 612.416L572.263 613.283C574.806 613.288 577.241 614.243 579.035 615.937C580.829 617.632 581.834 619.926 581.829 622.317C581.823 624.707 580.808 626.998 579.007 628.684C577.206 630.371 574.766 631.315 572.224 631.309Z" fill="#CCCCCC"/>
</g>
</g>
</g>
<defs>
<filter id="filter0_b" x="274.743" y="310.072" width="200.935" height="26.4494" filterUnits="userSpaceOnUse" color-interpolation-filters="sRGB">
<feFlood flood-opacity="0" result="BackgroundImageFix"/>
<feGaussianBlur in="BackgroundImage" stdDeviation="2"/>
<feComposite in2="SourceAlpha" operator="in" result="effect1_backgroundBlur"/>
<feBlend mode="normal" in="SourceGraphic" in2="effect1_backgroundBlur" result="shape"/>
</filter>
<filter id="filter1_b" x="163.264" y="608.395" width="422.585" height="26.9352" filterUnits="userSpaceOnUse" color-interpolation-filters="sRGB">
<feFlood flood-opacity="0" result="BackgroundImageFix"/>
<feGaussianBlur in="BackgroundImage" stdDeviation="2"/>
<feComposite in2="SourceAlpha" operator="in" result="effect1_backgroundBlur"/>
<feBlend mode="normal" in="SourceGraphic" in2="effect1_backgroundBlur" result="shape"/>
</filter>
<clipPath id="clip0">
<rect width="748.159" height="691.957" fill="white" transform="translate(1.84238 0.360046) rotate(0.125591)"/>
</clipPath>
</defs>
</svg>
